<svg width="1072" height="615" viewBox="0 0 1072 615" fill="none" xmlns="http://www.w3.org/2000/svg">
<g filter="url(#filter0_d_516_216)">
<rect x="859" y="190" width="640" height="63" rx="25" transform="rotate(-180 859 190)" fill="url(#paint0_linear_516_216)"/>
<rect x="858" y="189" width="638" height="61" rx="24" transform="rotate(-180 858 189)" stroke="#D9D9D9" stroke-width="2"/>
</g>
<g filter="url(#filter1_d_516_216)">
<path d="M138.277 166.8C137.082 167.461 135.215 167.792 132.677 167.792C129.029 167.792 126.117 166.683 123.941 164.464C121.786 162.203 120.709 159.227 120.709 155.536C120.709 151.888 121.807 148.933 124.005 146.672C126.202 144.411 129.093 143.28 132.677 143.28C135.279 143.28 137.146 143.568 138.277 144.144L138.021 147.408C136.57 146.832 134.789 146.544 132.677 146.544C130.095 146.544 128.037 147.376 126.501 149.04C124.965 150.704 124.197 152.869 124.197 155.536C124.197 158.309 124.943 160.485 126.437 162.064C127.951 163.707 130.031 164.528 132.677 164.528C134.917 164.528 136.698 164.176 138.021 163.472L138.277 166.8ZM151.543 152.656C150.092 152.656 148.94 153.232 148.087 154.384C147.276 155.515 146.871 156.976 146.871 158.768C146.871 160.56 147.276 162.021 148.087 163.152C148.94 164.304 150.092 164.88 151.543 164.88C152.993 164.88 154.135 164.304 154.967 163.152C155.799 162.043 156.215 160.581 156.215 158.768C156.215 156.976 155.799 155.515 154.967 154.384C154.135 153.232 152.993 152.656 151.543 152.656ZM151.543 149.648C154.188 149.648 156.247 150.597 157.719 152.496C159.041 154.181 159.703 156.272 159.703 158.768C159.703 161.264 159.041 163.355 157.719 165.04C156.247 166.939 154.188 167.888 151.543 167.888C148.876 167.888 146.807 166.939 145.335 165.04C144.033 163.397 143.383 161.307 143.383 158.768C143.383 156.229 144.033 154.139 145.335 152.496C146.807 150.597 148.876 149.648 151.543 149.648ZM167.077 167.376H163.589V141.904H167.077V167.376ZM178.629 152.4C177.178 152.4 176.101 153.051 175.397 154.352C174.8 155.419 174.501 156.869 174.501 158.704C174.501 162.779 175.877 164.816 178.629 164.816C179.952 164.816 180.997 164.155 181.765 162.832C182.384 161.701 182.693 160.293 182.693 158.608C182.693 156.923 182.384 155.515 181.765 154.384C181.018 153.061 179.973 152.4 178.629 152.4ZM185.925 167.536H182.693V165.936C181.626 167.259 180.165 167.92 178.309 167.92C175.984 167.92 174.181 167.056 172.901 165.328C171.706 163.643 171.109 161.435 171.109 158.704C171.109 155.888 171.664 153.669 172.773 152.048C173.989 150.235 175.834 149.328 178.309 149.328C180.016 149.328 181.477 150.032 182.693 151.44V141.84H185.925V167.536Z" fill="#1E1E1E"/>
</g>
<g filter="url(#filter2_d_516_216)">
<rect x="219" y="276" width="640" height="63" rx="25" fill="url(#paint1_linear_516_216)"/>
<rect x="220" y="277" width="638" height="61" rx="24" stroke="#D9D9D9" stroke-width="2"/>
</g>
<g filter="url(#filter3_d_516_216)">
<path d="M103.183 315.8C101.988 316.461 100.122 316.792 97.583 316.792C93.935 316.792 91.023 315.683 88.847 313.464C86.6923 311.203 85.615 308.227 85.615 304.536C85.615 300.888 86.7137 297.933 88.911 295.672C91.1083 293.411 93.999 292.28 97.583 292.28C100.186 292.28 102.052 292.568 103.183 293.144L102.927 296.408C101.476 295.832 99.695 295.544 97.583 295.544C95.0017 295.544 92.943 296.376 91.407 298.04C89.871 299.704 89.103 301.869 89.103 304.536C89.103 307.309 89.8497 309.485 91.343 311.064C92.8577 312.707 94.9377 313.528 97.583 313.528C99.823 313.528 101.604 313.176 102.927 312.472L103.183 315.8ZM112.577 316.376H109.089V290.904H112.577V316.376ZM124.449 301.656C122.998 301.656 121.846 302.232 120.993 303.384C120.182 304.515 119.777 305.976 119.777 307.768C119.777 309.56 120.182 311.021 120.993 312.152C121.846 313.304 122.998 313.88 124.449 313.88C125.9 313.88 127.041 313.304 127.873 312.152C128.705 311.043 129.121 309.581 129.121 307.768C129.121 305.976 128.705 304.515 127.873 303.384C127.041 302.232 125.9 301.656 124.449 301.656ZM124.449 298.648C127.094 298.648 129.153 299.597 130.625 301.496C131.948 303.181 132.609 305.272 132.609 307.768C132.609 310.264 131.948 312.355 130.625 314.04C129.153 315.939 127.094 316.888 124.449 316.888C121.782 316.888 119.713 315.939 118.241 314.04C116.94 312.397 116.289 310.307 116.289 307.768C116.289 305.229 116.94 303.139 118.241 301.496C119.713 299.597 121.782 298.648 124.449 298.648ZM147.599 316.536V314.776C146.447 316.184 144.933 316.888 143.055 316.888C140.965 316.888 139.375 316.259 138.287 315C137.327 313.827 136.847 312.248 136.847 310.264V299.064H140.271V309.624C140.271 312.461 141.306 313.88 143.375 313.88C144.762 313.88 145.818 313.357 146.543 312.312C147.119 311.459 147.407 310.296 147.407 308.824V299.064H150.799V312.12C150.799 313.699 150.863 315.171 150.991 316.536H147.599ZM162.942 301.4C161.491 301.4 160.414 302.051 159.71 303.352C159.112 304.419 158.814 305.869 158.814 307.704C158.814 311.779 160.19 313.816 162.942 313.816C164.264 313.816 165.31 313.155 166.078 311.832C166.696 310.701 167.006 309.293 167.006 307.608C167.006 305.923 166.696 304.515 166.078 303.384C165.331 302.061 164.286 301.4 162.942 301.4ZM170.238 316.536H167.006V314.936C165.939 316.259 164.478 316.92 162.622 316.92C160.296 316.92 158.494 316.056 157.214 314.328C156.019 312.643 155.422 310.435 155.422 307.704C155.422 304.888 155.976 302.669 157.086 301.048C158.302 299.235 160.147 298.328 162.622 298.328C164.328 298.328 165.79 299.032 167.006 300.44V290.84H170.238V316.536ZM188.332 299.064L181.996 316.76C181.462 318.253 180.908 319.288 180.332 319.864C179.628 320.653 178.689 321.059 177.516 321.08H177.196C176.385 321.08 175.553 320.973 174.7 320.76L175.052 317.56C175.798 317.837 176.406 317.976 176.876 317.976C176.918 317.976 177.004 317.965 177.132 317.944C177.281 317.944 177.473 317.933 177.708 317.912C178.198 317.869 178.646 317.155 179.052 315.768L179.308 314.936L173.516 299.064H177.036L180.908 310.744L184.94 299.064H188.332Z" fill="#1E1E1E"/>
</g>
<g filter="url(#filter4_d_516_216)">
<path d="M909.455 167.504H905.999V156.848H896.175V167.504H892.687V143.632H896.175V153.584H905.999V143.632H909.455V167.504ZM922.433 152.656C920.983 152.656 919.831 153.232 918.977 154.384C918.167 155.515 917.761 156.976 917.761 158.768C917.761 160.56 918.167 162.021 918.977 163.152C919.831 164.304 920.983 164.88 922.433 164.88C923.884 164.88 925.025 164.304 925.857 163.152C926.689 162.043 927.105 160.581 927.105 158.768C927.105 156.976 926.689 155.515 925.857 154.384C925.025 153.232 923.884 152.656 922.433 152.656ZM922.433 149.648C925.079 149.648 927.137 150.597 928.609 152.496C929.932 154.181 930.593 156.272 930.593 158.768C930.593 161.264 929.932 163.355 928.609 165.04C927.137 166.939 925.079 167.888 922.433 167.888C919.767 167.888 917.697 166.939 916.225 165.04C914.924 163.397 914.273 161.307 914.273 158.768C914.273 156.229 914.924 154.139 916.225 152.496C917.697 150.597 919.767 149.648 922.433 149.648ZM943.12 167.376C942.309 167.717 941.392 167.888 940.368 167.888C938.341 167.888 937.029 167.344 936.432 166.256C935.984 165.531 935.76 164.133 935.76 162.064V153.008H933.008V149.84H935.76V146.032L939.216 144.912V149.84H942.608V153.008H939.216V162.96C939.216 164.197 939.781 164.816 940.912 164.816C941.658 164.816 942.309 164.677 942.864 164.4L943.12 167.376Z" fill="#1E1E1E"/>
</g>
<g filter="url(#filter5_d_516_216)">
<rect x="219" y="425" width="640" height="63" rx="25" fill="url(#paint2_linear_516_216)"/>
<rect x="220" y="426" width="638" height="61" rx="24" stroke="#D9D9D9" stroke-width="2"/>
</g>
<g filter="url(#filter6_d_516_216)">
<path d="M144.7 462.08H145.852C152.337 462.08 155.58 459.179 155.58 453.376C155.58 447.765 152.807 444.96 147.26 444.96H144.7V462.08ZM141.212 441.696H147.26C151.271 441.696 154.289 442.805 156.316 445.024C158.129 447.029 159.036 449.845 159.036 453.472C159.036 457.568 157.735 460.629 155.132 462.656C152.849 464.469 149.681 465.376 145.628 465.376H141.212V441.696ZM172.462 451.2C172.185 451.157 171.929 451.125 171.694 451.104C171.459 451.061 171.225 451.04 170.99 451.04C169.753 451.04 168.835 451.648 168.238 452.864C167.683 453.931 167.406 455.253 167.406 456.832V465.504H163.982V452.32C163.982 451.509 163.961 450.752 163.918 450.048C163.897 449.323 163.865 448.651 163.822 448.032H167.278V450.176C168.259 448.491 169.507 447.648 171.022 447.648C171.491 447.648 171.971 447.712 172.462 447.84V451.2ZM188.535 448.064L182.199 465.76C181.666 467.253 181.111 468.288 180.535 468.864C179.831 469.653 178.892 470.059 177.719 470.08H177.399C176.588 470.08 175.756 469.973 174.903 469.76L175.255 466.56C176.002 466.837 176.61 466.976 177.079 466.976C177.122 466.976 177.207 466.965 177.335 466.944C177.484 466.944 177.676 466.933 177.911 466.912C178.402 466.869 178.85 466.155 179.255 464.768L179.511 463.936L173.719 448.064H177.239L181.111 459.744L185.143 448.064H188.535Z" fill="#1E1E1E"/>
</g>
<g filter="url(#filter7_d_516_216)">
<path d="M909.377 465.504H905.921V454.848H896.097V465.504H892.609V441.632H896.097V451.584H905.921V441.632H909.377V465.504ZM926.099 465.536V463.776C924.947 465.184 923.433 465.888 921.555 465.888C919.465 465.888 917.875 465.259 916.787 464C915.827 462.827 915.347 461.248 915.347 459.264V448.064H918.771V458.624C918.771 461.461 919.806 462.88 921.875 462.88C923.262 462.88 924.318 462.357 925.043 461.312C925.619 460.459 925.907 459.296 925.907 457.824V448.064H929.299V461.12C929.299 462.699 929.363 464.171 929.491 465.536H926.099ZM958.146 465.376H954.818V454.112C954.818 451.851 953.815 450.72 951.81 450.72C950.828 450.72 950.018 451.125 949.378 451.936C948.61 452.875 948.226 454.197 948.226 455.904V465.376H944.866V454.112C944.866 451.851 943.863 450.72 941.858 450.72C940.855 450.72 940.055 451.115 939.458 451.904C938.711 452.843 938.338 454.176 938.338 455.904V465.376H934.946V452.48C934.946 451.499 934.935 450.645 934.914 449.92C934.892 449.195 934.86 448.587 934.818 448.096H938.146V449.664C939.106 448.363 940.61 447.712 942.658 447.712C943.532 447.712 944.407 447.968 945.282 448.48C946.178 449.035 946.807 449.728 947.17 450.56C948.364 448.661 950.146 447.712 952.514 447.712C954.327 447.712 955.735 448.256 956.738 449.344C957.676 450.347 958.146 451.723 958.146 453.472V465.376ZM967.08 465.504H963.656V447.584H967.08V465.504ZM967.08 444.512H963.656V440.512H967.08V444.512ZM978.817 450.4C977.366 450.4 976.289 451.051 975.585 452.352C974.987 453.419 974.689 454.869 974.689 456.704C974.689 460.779 976.065 462.816 978.817 462.816C980.139 462.816 981.185 462.155 981.953 460.832C982.571 459.701 982.881 458.293 982.881 456.608C982.881 454.923 982.571 453.515 981.953 452.384C981.206 451.061 980.161 450.4 978.817 450.4ZM986.113 465.536H982.881V463.936C981.814 465.259 980.353 465.92 978.497 465.92C976.171 465.92 974.369 465.056 973.089 463.328C971.894 461.643 971.297 459.435 971.297 456.704C971.297 453.888 971.851 451.669 972.961 450.048C974.177 448.235 976.022 447.328 978.497 447.328C980.203 447.328 981.665 448.032 982.881 449.44V439.84H986.113V465.536Z" fill="#1E1E1E"/>
</g>
<g filter="url(#filter8_d_516_216)">
<path d="M908.933 315.8C907.738 316.461 905.872 316.792 903.333 316.792C899.685 316.792 896.773 315.683 894.597 313.464C892.442 311.203 891.365 308.227 891.365 304.536C891.365 300.888 892.464 297.933 894.661 295.672C896.858 293.411 899.749 292.28 903.333 292.28C905.936 292.28 907.802 292.568 908.933 293.144L908.677 296.408C907.226 295.832 905.445 295.544 903.333 295.544C900.752 295.544 898.693 296.376 897.157 298.04C895.621 299.704 894.853 301.869 894.853 304.536C894.853 307.309 895.6 309.485 897.093 311.064C898.608 312.707 900.688 313.528 903.333 313.528C905.573 313.528 907.354 313.176 908.677 312.472L908.933 315.8ZM918.327 316.376H914.839V290.904H918.327V316.376ZM936.375 308.984H925.591C925.655 310.52 926.071 311.715 926.839 312.568C927.628 313.485 928.716 313.944 930.103 313.944C932.023 313.944 933.719 313.528 935.191 312.696V315.928C933.484 316.568 931.756 316.888 930.007 316.888C927.255 316.888 925.207 316.013 923.863 314.264C922.69 312.707 922.103 310.531 922.103 307.736C922.103 305.048 922.754 302.861 924.055 301.176C925.356 299.491 927.106 298.648 929.303 298.648C931.756 298.648 933.591 299.523 934.807 301.272C935.852 302.765 936.375 304.739 936.375 307.192V308.984ZM932.887 305.944C932.887 304.749 932.578 303.747 931.959 302.936C931.319 302.083 930.476 301.656 929.431 301.656C928.364 301.656 927.458 302.093 926.711 302.968C925.964 303.843 925.591 304.835 925.591 305.944H932.887ZM949.781 316.536V314.84C948.735 316.205 947.231 316.888 945.269 316.888C943.135 316.888 941.557 316.291 940.533 315.096C939.807 314.221 939.445 313.155 939.445 311.896C939.445 307.544 942.645 305.368 949.045 305.368H949.525V304.792C949.525 302.701 948.554 301.656 946.613 301.656C944.863 301.656 943.135 302.115 941.429 303.032V299.896C943.05 299.064 944.842 298.648 946.805 298.648C948.853 298.648 950.346 299.128 951.285 300.088C952.287 301.133 952.789 302.755 952.789 304.952V312.408C952.789 314.371 952.853 315.747 952.981 316.536H949.781ZM949.525 308.344H948.853C947.189 308.344 945.909 308.493 945.013 308.792C943.583 309.261 942.869 310.189 942.869 311.576C942.869 313.112 943.754 313.88 945.525 313.88C948.191 313.88 949.525 312.259 949.525 309.016V308.344ZM966.29 302.2C966.013 302.157 965.757 302.125 965.522 302.104C965.287 302.061 965.053 302.04 964.818 302.04C963.581 302.04 962.663 302.648 962.066 303.864C961.511 304.931 961.234 306.253 961.234 307.832V316.504H957.81V303.32C957.81 302.509 957.789 301.752 957.746 301.048C957.725 300.323 957.693 299.651 957.65 299.032H961.106V301.176C962.087 299.491 963.335 298.648 964.85 298.648C965.319 298.648 965.799 298.712 966.29 298.84V302.2Z" fill="#1E1E1E"/>
</g>
<defs>
<filter id="filter0_d_516_216" x="215" y="127" width="648" height="71" filterUnits="userSpaceOnUse" color-interpolation-filters="sRGB">
<feFlood flood-opacity="0" result="BackgroundImageFix"/>
<feColorMatrix in="SourceAlpha" type="matrix" values="0 0 0 0 0 0 0 0 0 0 0 0 0 0 0 0 0 0 127 0" result="hardAlpha"/>
<feOffset dy="4"/>
<feGaussianBlur stdDeviation="2"/>
<feComposite in2="hardAlpha" operator="out"/>
<feColorMatrix type="matrix" values="0 0 0 0 0 0 0 0 0 0 0 0 0 0 0 0 0 0 0.25 0"/>
<feBlend mode="normal" in2="BackgroundImageFix" result="effect1_dropShadow_516_216"/>
<feBlend mode="normal" in="SourceGraphic" in2="effect1_dropShadow_516_216" result="shape"/>
</filter>
<filter id="filter1_d_516_216" x="116.709" y="141.84" width="73.2163" height="34.0798" filterUnits="userSpaceOnUse" color-interpolation-filters="sRGB">
<feFlood flood-opacity="0" result="BackgroundImageFix"/>
<feColorMatrix in="SourceAlpha" type="matrix" values="0 0 0 0 0 0 0 0 0 0 0 0 0 0 0 0 0 0 127 0" result="hardAlpha"/>
<feOffset dy="4"/>
<feGaussianBlur stdDeviation="2"/>
<feComposite in2="hardAlpha" operator="out"/>
<feColorMatrix type="matrix" values="0 0 0 0 0 0 0 0 0 0 0 0 0 0 0 0 0 0 0.25 0"/>
<feBlend mode="normal" in2="BackgroundImageFix" result="effect1_dropShadow_516_216"/>
<feBlend mode="normal" in="SourceGraphic" in2="effect1_dropShadow_516_216" result="shape"/>
</filter>
<filter id="filter2_d_516_216" x="215" y="276" width="648" height="71" filterUnits="userSpaceOnUse" color-interpolation-filters="sRGB">
<feFlood flood-opacity="0" result="BackgroundImageFix"/>
<feColorMatrix in="SourceAlpha" type="matrix" values="0 0 0 0 0 0 0 0 0 0 0 0 0 0 0 0 0 0 127 0" result="hardAlpha"/>
<feOffset dy="4"/>
<feGaussianBlur stdDeviation="2"/>
<feComposite in2="hardAlpha" operator="out"/>
<feColorMatrix type="matrix" values="0 0 0 0 0 0 0 0 0 0 0 0 0 0 0 0 0 0 0.25 0"/>
<feBlend mode="normal" in2="BackgroundImageFix" result="effect1_dropShadow_516_216"/>
<feBlend mode="normal" in="SourceGraphic" in2="effect1_dropShadow_516_216" result="shape"/>
</filter>
<filter id="filter3_d_516_216" x="81.615" y="290.84" width="110.717" height="38.24" filterUnits="userSpaceOnUse" color-interpolation-filters="sRGB">
<feFlood flood-opacity="0" result="BackgroundImageFix"/>
<feColorMatrix in="SourceAlpha" type="matrix" values="0 0 0 0 0 0 0 0 0 0 0 0 0 0 0 0 0 0 127 0" result="hardAlpha"/>
<feOffset dy="4"/>
<feGaussianBlur stdDeviation="2"/>
<feComposite in2="hardAlpha" operator="out"/>
<feColorMatrix type="matrix" values="0 0 0 0 0 0 0 0 0 0 0 0 0 0 0 0 0 0 0.25 0"/>
<feBlend mode="normal" in2="BackgroundImageFix" result="effect1_dropShadow_516_216"/>
<feBlend mode="normal" in="SourceGraphic" in2="effect1_dropShadow_516_216" result="shape"/>
</filter>
<filter id="filter4_d_516_216" x="888.687" y="143.632" width="58.4323" height="32.2559" filterUnits="userSpaceOnUse" color-interpolation-filters="sRGB">
<feFlood flood-opacity="0" result="BackgroundImageFix"/>
<feColorMatrix in="SourceAlpha" type="matrix" values="0 0 0 0 0 0 0 0 0 0 0 0 0 0 0 0 0 0 127 0" result="hardAlpha"/>
<feOffset dy="4"/>
<feGaussianBlur stdDeviation="2"/>
<feComposite in2="hardAlpha" operator="out"/>
<feColorMatrix type="matrix" values="0 0 0 0 0 0 0 0 0 0 0 0 0 0 0 0 0 0 0.25 0"/>
<feBlend mode="normal" in2="BackgroundImageFix" result="effect1_dropShadow_516_216"/>
<feBlend mode="normal" in="SourceGraphic" in2="effect1_dropShadow_516_216" result="shape"/>
</filter>
<filter id="filter5_d_516_216" x="215" y="425" width="648" height="71" filterUnits="userSpaceOnUse" color-interpolation-filters="sRGB">
<feFlood flood-opacity="0" result="BackgroundImageFix"/>
<feColorMatrix in="SourceAlpha" type="matrix" values="0 0 0 0 0 0 0 0 0 0 0 0 0 0 0 0 0 0 127 0" result="hardAlpha"/>
<feOffset dy="4"/>
<feGaussianBlur stdDeviation="2"/>
<feComposite in2="hardAlpha" operator="out"/>
<feColorMatrix type="matrix" values="0 0 0 0 0 0 0 0 0 0 0 0 0 0 0 0 0 0 0.25 0"/>
<feBlend mode="normal" in2="BackgroundImageFix" result="effect1_dropShadow_516_216"/>
<feBlend mode="normal" in="SourceGraphic" in2="effect1_dropShadow_516_216" result="shape"/>
</filter>
<filter id="filter6_d_516_216" x="137.212" y="441.696" width="55.323" height="36.384" filterUnits="userSpaceOnUse" color-interpolation-filters="sRGB">
<feFlood flood-opacity="0" result="BackgroundImageFix"/>
<feColorMatrix in="SourceAlpha" type="matrix" values="0 0 0 0 0 0 0 0 0 0 0 0 0 0 0 0 0 0 127 0" result="hardAlpha"/>
<feOffset dy="4"/>
<feGaussianBlur stdDeviation="2"/>
<feComposite in2="hardAlpha" operator="out"/>
<feColorMatrix type="matrix" values="0 0 0 0 0 0 0 0 0 0 0 0 0 0 0 0 0 0 0.25 0"/>
<feBlend mode="normal" in2="BackgroundImageFix" result="effect1_dropShadow_516_216"/>
<feBlend mode="normal" in="SourceGraphic" in2="effect1_dropShadow_516_216" result="shape"/>
</filter>
<filter id="filter7_d_516_216" x="888.609" y="439.84" width="101.503" height="34.0798" filterUnits="userSpaceOnUse" color-interpolation-filters="sRGB">
<feFlood flood-opacity="0" result="BackgroundImageFix"/>
<feColorMatrix in="SourceAlpha" type="matrix" values="0 0 0 0 0 0 0 0 0 0 0 0 0 0 0 0 0 0 127 0" result="hardAlpha"/>
<feOffset dy="4"/>
<feGaussianBlur stdDeviation="2"/>
<feComposite in2="hardAlpha" operator="out"/>
<feColorMatrix type="matrix" values="0 0 0 0 0 0 0 0 0 0 0 0 0 0 0 0 0 0 0.25 0"/>
<feBlend mode="normal" in2="BackgroundImageFix" result="effect1_dropShadow_516_216"/>
<feBlend mode="normal" in="SourceGraphic" in2="effect1_dropShadow_516_216" result="shape"/>
</filter>
<filter id="filter8_d_516_216" x="887.365" y="290.904" width="82.925" height="33.9839" filterUnits="userSpaceOnUse" color-interpolation-filters="sRGB">
<feFlood flood-opacity="0" result="BackgroundImageFix"/>
<feColorMatrix in="SourceAlpha" type="matrix" values="0 0 0 0 0 0 0 0 0 0 0 0 0 0 0 0 0 0 127 0" result="hardAlpha"/>
<feOffset dy="4"/>
<feGaussianBlur stdDeviation="2"/>
<feComposite in2="hardAlpha" operator="out"/>
<feColorMatrix type="matrix" values="0 0 0 0 0 0 0 0 0 0 0 0 0 0 0 0 0 0 0.25 0"/>
<feBlend mode="normal" in2="BackgroundImageFix" result="effect1_dropShadow_516_216"/>
<feBlend mode="normal" in="SourceGraphic" in2="effect1_dropShadow_516_216" result="shape"/>
</filter>
<linearGradient id="paint0_linear_516_216" x1="1499" y1="222" x2="859" y2="222" gradientUnits="userSpaceOnUse">
<stop stop-color="#32B99D"/>
<stop offset="1" stop-color="#F6BFB4"/>
</linearGradient>
<linearGradient id="paint1_linear_516_216" x1="219" y1="308" x2="859" y2="308" gradientUnits="userSpaceOnUse">
<stop stop-color="#5F5B5A"/>
<stop offset="1" stop-color="#E5ECEC"/>
</linearGradient>
<linearGradient id="paint2_linear_516_216" x1="219" y1="457" x2="859" y2="457" gradientUnits="userSpaceOnUse">
<stop stop-color="#EAB164"/>
<stop offset="1" stop-color="#43614E"/>
</linearGradient>
</defs>
</svg>
